#!OML:ASF H:\Terrain\Patient Classification 1\Animal2\Wednesday\Animal2.ASF
:FULLY-SPECIFIED
:DEGREES
100
root 10.5187 17.4932 -32.3765 1.68548 -1.60016 1.31623
lowerback 3.07375 -2.60111 -3.06095
upperback 0.755197 -3.56285 -0.108356
thorax -0.765805 -1.77726 1.72604
lowerneck 0.109709 7.85962 15.8404
upperneck 0.402054 11.0101 -22.121
head 2.30569 5.46523 -9.13148
rclavicle 2.23509e-014 1.2424e-014
rhumerus -30.9331 4.51291 -90.6129
rradius 24.569
rwrist 12.7066
rhand -14.4147 20.644
rfingers 7.12502
rthumb 11.7293 -9.00758
lclavicle 2.23509e-014 1.2424e-014
lhumerus -37.3953 -6.98603 90.6297
lradius 22.5482
lwrist 4.74503
lhand -17.5841 26.9045
lfingers 7.12502
lthumb 8.67165 56.7064
rfemur -23.2444 0.155368 18.6337
rtibia 51.2365
rfoot -21.2904 -7.98558
rtoes 1.99754
lfemur -6.58144 6.35811 -25.5984
ltibia 24.4192
lfoot -22.1114 -5.87515
ltoes -10.8461
101
root 10.5201 17.4982 -32.3461 1.89359 -1.63938 1.11034
lowerback 3.0494 -2.64511 -2.87428
upperback 0.685619 -3.61524 -0.024848
thorax -0.827091 -1.80203 1.71023
lowerneck -0.345844 7.85967 15.8413
upperneck 0.615473 10.9934 -22.257
head 2.45129 5.42487 -9.15717
rclavicle 2.73515e-014 1.61016e-014
rhumerus -31.1784 4.72778 -90.6292
rradius 24.8487
rwrist 12.6875
rhand -14.8063 20.9473
rfingers 7.12502
rthumb 11.3515 -8.72548
lclavicle 2.73515e-014 1.61016e-014
lhumerus -37.2211 -6.67154 90.4795
lradius 22.2082
lwrist 4.19162
lhand -17.6574 26.8402
lfingers 7.12502
lthumb 8.60097 56.645
rfemur -23.9767 0.380168 18.9312
rtibia 51.0484
rfoot -21.0371 -7.9598
rtoes 1.14993
lfemur -6.71822 6.23535 -25.4244
ltibia 24.4579
lfoot -22.2945 -5.24388
ltoes -13.2039
102
root 10.5197 17.4961 -32.3191 2.14089 -1.6151 0.786495
lowerback 3.05191 -2.63481 -2.59976
upperback 0.530978 -3.59469 0.0449651
thorax -1.00068 -1.78823 1.63359
lowerneck -1.18038 7.74921 16.6319
upperneck 1.5403 10.9048 -22.915
head 2.93114 5.3099 -9.49017
rclavicle -3.39798e-014 -1.77912e-014
rhumerus -31.6518 4.60196 -90.6104
rradius 25.1055
rwrist 12.6203
rhand -15.7868 20.952
rfingers 7.12502
rthumb 10.4058 -8.7705
lclavicle -3.39798e-014 -1.77912e-014
lhumerus -37.2978 -6.87312 90.5125
lradius 22.0038
lwrist 4.20456
lhand -17.7989 26.5882
lfingers 7.12502
lthumb 8.46443 56.3986
rfemur -24.719 0.550949 19.3755
rtibia 50.7583
rfoot -20.6607 -8.01074
rtoes -0.682667
lfemur -6.89834 6.07462 -25.1014
ltibia 24.4844
lfoot -22.3417 -5.10391
ltoes -13.3971
103
root 10.5213 17.4937 -32.2851 2.16872 -1.43905 0.686968
lowerback 3.1527 -2.68892 -2.53921
upperback 0.462937 -3.66827 0.0817676
thorax -1.12482 -1.8227 1.64765
lowerneck 0.100297 7.83866 16.0806
upperneck 0.422965 10.9938 -22.3524
head 2.33975 5.456 -9.25282
rclavicle 2.61153e-014 1.68967e-014
rhumerus -31.9138 4.32253 -90.4375
rradius 25.1397
rwrist 13.2219
rhand -16.6872 20.864
rfingers 7.12502
rthumb 9.53717 -8.90018
lclavicle 2.61153e-014 1.68967e-014
lhumerus -37.3505 -6.89631 90.5358
lradius 21.801
lwrist 4.22231
lhand -18.1048 26.2286
lfingers 7.12502
lthumb 8.16921 56.0507
rfemur -25.1421 0.617728 19.5387
rtibia 50.3611
rfoot -20.3591 -7.94145
rtoes 0.341323
lfemur -6.82698 5.81988 -24.9974
ltibia 24.5367
lfoot -22.4265 -4.99239
ltoes -13.252
104
root 10.527 17.4911 -32.2459 2.18531 -1.14024 0.877833
lowerback 3.1706 -2.78349 -2.69736
upperback 0.503538 -3.79989 0.0485305
thorax -1.07902 -1.88894 1.70557
lowerneck 0.408227 7.86589 15.893
upperneck -0.112806 10.9884 -22.3628
head 2.12435 5.48317 -9.24294
rclavicle 6.33626e-014 8.15017e-015
rhumerus -31.8787 4.02587 -90.1993
rradius 25.1543
rwrist 14.1672
rhand -16.6096 20.0661
rfingers 7.12502
rthumb 9.61201 -9.6946
lclavicle 6.33626e-014 8.15017e-015
lhumerus -37.0326 -6.65785 90.435
lradius 21.4296
lwrist 3.71011
lhand -18.3676 26.3187
lfingers 7.12502
lthumb 7.91555 56.1505
rfemur -25.4809 0.593469 19.3391
rtibia 49.8442
rfoot -20.139 -8.02937
rtoes 0.928758
lfemur -6.68651 5.67046 -25.1984
ltibia 24.5432
lfoot -22.5484 -5.13981
ltoes -12.4816
105
root 10.531 17.4804 -32.2038 2.28519 -0.957305 0.840618
lowerback 3.14597 -2.8193 -2.65823
upperback 0.522418 -3.84494 0.070879
thorax -1.04472 -1.91227 1.70613
lowerneck 0.262046 7.82509 15.8857
upperneck -0.299007 10.889 -22.4393
head 2.08265 5.43002 -9.27121
rclavicle -1.70209e-014 1.48095e-014
rhumerus -31.9628 3.9443 -90.0813
rradius 25.2397
rwrist 14.3912
rhand -16.3242 19.4062
rfingers 7.12502
rthumb 9.88739 -10.3416
lclavicle -1.70209e-014 1.48095e-014
lhumerus -36.611 -6.5693 90.4246
lradius 20.9533
lwrist 3.30047
lhand -18.4682 26.6472
lfingers 7.12502
lthumb 7.81846 56.4826
rfemur -25.8776 0.611212 19.4099
rtibia 49.2076
rfoot -19.8957 -8.41925
rtoes -0.905092
lfemur -6.54336 5.61445 -25.1557
ltibia 24.4086
lfoot -22.6136 -5.28767
ltoes -12.119
106
root 10.5315 17.478 -32.1586 2.34132 -0.99362 0.747984
lowerback 3.19869 -2.78405 -2.65522
upperback 0.521638 -3.79888 0.11562
thorax -1.07437 -1.88879 1.75167
lowerneck 0.171176 7.89199 15.9681
upperneck -0.232793 10.9794 -22.3784
head 2.13582 5.46844 -9.25207
rclavicle 1.81639e-014 -1.85864e-014
rhumerus -32.2082 3.92941 -89.9788
rradius 25.4215
rwrist 14.3819
rhand -15.8733 19.5881
rfingers 7.12502
rthumb 10.3224 -10.1385
lclavicle 1.81639e-014 -1.85864e-014
lhumerus -36.3879 -6.5413 90.4275
lradius 20.6532
lwrist 3.03479
lhand -18.3506 26.3792
lfingers 7.12502
lthumb 7.93196 56.2104
rfemur -26.2592 0.864191 19.5393
rtibia 48.4774
rfoot -19.8313 -8.52949
rtoes -0.976735
lfemur -6.35088 5.62803 -25.0629
ltibia 24.243
lfoot -22.7047 -4.9905
ltoes -13.3424
